<?xml version="1.0" standalone="no"?>
<!DOCTYPE svg PUBLIC "-//W3C//DTD SVG 20010904//EN"
 "http://www.w3.org/TR/2001/REC-SVG-20010904/DTD/svg10.dtd">
<svg version="1.0" xmlns="http://www.w3.org/2000/svg"
 width="2000.000000pt" height="2000.000000pt" viewBox="0 0 2000.000000 2000.000000"
 preserveAspectRatio="xMidYMid meet">

<g transform="translate(0.000000,2000.000000) scale(0.100000,-0.100000)"
fill="#000000" stroke="none">
<path d="M7825 18658 c-3 -7 -4 -1122 -3 -2478 l3 -2465 5015 0 5015 0 0 2475
0 2475 -5013 3 c-4005 2 -5014 0 -5017 -10z m4795 -2473 l0 -2185 -2235 0
-2235 0 0 2185 0 2185 2235 0 2235 0 0 -2185z m4910 0 l0 -2185 -2235 0 -2235
0 0 2185 0 2185 2235 0 2235 0 0 -2185z"/>
<path d="M11532 17208 c-115 -134 -267 -310 -338 -393 -72 -82 -202 -234 -289
-336 -88 -102 -173 -201 -190 -220 -802 -929 -887 -1028 -879 -1041 12 -19 35
0 136 117 56 67 197 231 313 365 115 135 212 247 215 250 3 3 145 167 315 365
170 198 341 396 379 440 396 458 544 631 559 651 17 22 16 44 -3 44 -4 0 -102
-109 -218 -242z"/>
<path d="M10918 16783 c-109 -128 -217 -254 -247 -288 -15 -16 -125 -145 -246
-285 -120 -140 -262 -304 -315 -365 -171 -197 -260 -304 -260 -315 0 -29 41
-2 95 61 33 40 74 88 91 108 441 507 984 1145 984 1156 0 33 -31 11 -102 -72z"/>
<path d="M9613 14980 c-51 -59 -93 -113 -93 -119 0 -33 45 1 125 95 95 111
109 134 78 133 -10 0 -58 -48 -110 -109z"/>
<path d="M16123 17263 c-89 -104 -239 -278 -334 -389 -234 -271 -566 -657
-1153 -1339 -270 -313 -496 -576 -503 -583 -27 -28 -63 -79 -63 -90 0 -27 31
-8 77 46 27 31 290 336 584 677 293 341 604 701 689 800 265 309 517 601 707
822 171 199 202 243 170 243 -7 0 -85 -84 -174 -187z"/>
<path d="M15443 16760 c-85 -99 -109 -140 -84 -140 5 0 16 6 23 14 71 73 188
214 188 227 0 31 -47 -5 -127 -101z"/>
<path d="M15215 16496 c-6 -8 -118 -139 -250 -292 -496 -573 -565 -655 -565
-669 0 -8 6 -15 13 -15 8 0 133 138 278 307 145 169 330 383 411 477 81 94
148 179 148 189 0 21 -21 23 -35 3z"/>
<path d="M5195 17031 c-279 -100 -704 -457 -808 -679 -54 -115 -31 -245 64
-369 57 -74 198 -205 217 -201 8 2 28 37 44 78 17 41 33 79 38 83 4 4 10 -14
13 -42 3 -27 13 -64 22 -81 33 -65 149 -120 283 -136 70 -7 67 -13 78 134 3
50 9 92 11 92 3 0 18 -11 35 -25 36 -30 75 -42 91 -26 32 32 32 6 -3 -249 -44
-315 -93 -412 -334 -659 -174 -177 -367 -341 -451 -383 -38 -19 -164 -63 -280
-97 -336 -99 -510 -184 -615 -297 -120 -130 -202 -449 -186 -724 l6 -116 -144
-569 c-195 -771 -225 -880 -301 -1116 -88 -271 -129 -418 -159 -570 -24 -118
-26 -151 -31 -490 -3 -200 -9 -499 -15 -664 -5 -165 -13 -390 -16 -500 -4
-110 -8 -203 -11 -207 -2 -5 -55 -8 -118 -8 -210 0 -296 -34 -351 -140 -24
-45 -24 -170 0 -260 49 -184 186 -364 306 -398 63 -19 621 -14 656 5 16 9 31
9 68 -2 33 -10 105 -15 231 -16 l182 -2 18 -126 c25 -188 76 -431 160 -771
165 -664 179 -806 122 -1215 -77 -542 -93 -967 -51 -1324 20 -175 66 -448 129
-771 54 -276 109 -619 101 -627 -2 -3 -19 -12 -38 -21 -28 -14 -34 -23 -36
-57 -5 -49 11 -121 51 -244 l30 -94 -30 -26 c-17 -14 -109 -94 -204 -176 -96
-83 -207 -177 -248 -209 -41 -33 -87 -81 -104 -107 l-30 -49 -1219 0 c-1156 0
-1219 -1 -1216 -17 3 -17 69 -18 1211 -18 664 0 1207 -1 1207 -2 0 -1 -6 -30
-14 -65 -14 -61 -19 -108 -17 -156 1 -33 53 -76 114 -95 126 -39 333 -55 479
-37 203 24 327 72 506 197 35 24 93 57 128 73 35 15 75 40 89 54 l26 26 441 0
440 0 19 -23 c10 -13 46 -36 80 -52 35 -15 106 -57 158 -92 175 -118 290 -161
493 -183 158 -18 374 1 485 42 99 37 119 87 88 228 -8 36 -14 70 -15 75 0 7
2093 9 6265 7 4178 -1 6265 1 6265 8 0 5 1 13 3 18 1 4 -288 9 -643 12 l-645
5 0 125 c0 113 2 125 17 122 10 -2 27 2 38 8 19 10 20 21 20 215 0 112 -3 206
-7 208 -5 3 -113 8 -242 11 -129 4 -236 8 -238 10 -5 5 -43 387 -43 429 l0 27
259 0 c252 0 259 1 292 23 90 60 90 194 0 254 -33 23 -40 23 -307 23 l-273 0
-6 43 c-5 37 -57 601 -115 1247 -11 124 -22 234 -23 245 -2 20 5 20 348 25
342 5 351 6 381 27 88 63 83 188 -10 257 -26 20 -44 21 -389 26 l-362 5 -37
405 c-20 223 -51 558 -68 745 -17 187 -32 351 -33 365 l-2 25 432 5 c418 5
432 6 460 26 71 53 91 129 54 203 -40 78 -21 75 -526 81 l-450 5 -36 395 c-20
217 -53 575 -73 795 -20 220 -38 412 -41 428 l-4 27 511 0 c493 0 513 1 552
20 55 27 79 63 83 124 6 68 -19 114 -77 144 -44 22 -45 22 -567 22 -410 0
-525 3 -528 13 -2 6 -14 120 -26 252 -11 132 -23 243 -26 248 -2 4 -122 7
-266 7 -205 0 -274 4 -317 16 -37 10 -115 16 -235 19 -150 3 -196 1 -277 -16
-83 -16 -139 -19 -416 -19 -209 0 -323 -4 -327 -10 -4 -6 -16 -122 -29 -258
l-22 -247 -592 -3 c-326 -1 -592 -1 -592 0 -1 2 -11 114 -24 249 -13 136 -27
252 -30 258 -8 13 -763 16 -782 3 -9 -5 -6 -72 12 -257 13 -137 24 -251 24
-252 0 -2 -76 -3 -168 -3 l-168 0 23 248 c12 136 21 253 18 260 -7 18 -783 18
-791 -1 -2 -7 -14 -123 -27 -257 l-22 -245 -46 -3 -45 -3 -18 58 c-35 112 -85
193 -181 289 -75 76 -104 98 -175 132 -131 62 -190 74 -385 78 -298 5 -452
-42 -605 -182 -26 -24 -67 -48 -97 -58 -100 -33 -209 -120 -266 -213 -72 -115
-91 -285 -47 -412 49 -147 162 -262 303 -310 37 -13 78 -38 115 -71 71 -64
206 -133 299 -154 52 -12 124 -16 263 -16 228 0 296 12 422 77 147 75 265 201
330 353 15 36 28 56 28 46 0 -11 13 -40 29 -65 l30 -46 -45 -480 c-24 -264
-52 -565 -62 -670 l-17 -189 -36 -4 c-35 -3 -35 -3 -53 55 -73 232 -245 401
-486 474 -68 21 -95 23 -285 23 -170 0 -222 -3 -275 -17 -115 -32 -225 -92
-313 -171 -21 -19 -54 -40 -75 -47 -183 -59 -311 -210 -342 -403 -35 -222 109
-462 321 -533 37 -12 77 -37 115 -71 70 -62 213 -135 304 -157 103 -24 434
-21 534 5 229 58 429 245 499 465 l22 70 7 -55 c4 -30 10 -71 13 -90 3 -19
-17 -280 -45 -580 -27 -300 -55 -599 -61 -665 -12 -145 -13 -147 -41 -143 -18
2 -27 15 -39 53 -61 190 -188 340 -365 428 -127 64 -172 71 -419 71 l-220 0
-93 -32 c-101 -35 -180 -81 -256 -149 -26 -24 -60 -46 -75 -50 -52 -12 -145
-65 -194 -111 -106 -99 -157 -216 -157 -361 0 -205 104 -369 287 -453 35 -15
67 -28 73 -28 6 0 39 -24 74 -54 81 -69 140 -103 241 -140 77 -29 87 -30 290
-34 255 -4 317 6 454 75 165 82 296 234 352 406 l24 72 3 -86 c2 -78 -111
-1403 -123 -1437 -10 -28 -28 -4 -59 79 -79 211 -228 356 -443 432 -85 30 -96
31 -285 35 -160 3 -212 1 -275 -13 -130 -28 -231 -79 -338 -170 -27 -23 -72
-49 -100 -59 -92 -30 -196 -114 -254 -204 -94 -148 -98 -354 -10 -509 56 -98
168 -190 273 -223 22 -7 71 -38 110 -70 90 -72 143 -102 242 -137 78 -28 82
-28 314 -28 228 0 237 1 315 27 190 64 345 201 428 377 25 53 32 61 38 44 6
-17 -36 -511 -44 -520 -2 -1 -90 -6 -195 -9 l-192 -7 0 -213 c0 -184 2 -213
16 -218 9 -3 60 -6 115 -6 l100 0 -3 -122 -3 -123 -2216 -3 -2216 -2 -37 54
c-21 30 -54 67 -74 83 -112 84 -502 423 -502 436 0 6 16 60 36 121 19 61 38
140 41 177 5 61 4 67 -18 82 -13 10 -38 20 -56 23 -18 3 -33 9 -33 13 0 26
106 554 135 671 149 602 225 1095 212 1369 -4 76 -20 187 -47 321 -58 290
-140 783 -140 842 0 27 11 93 24 146 45 179 125 537 166 738 98 491 126 717
140 1107 5 160 15 414 21 562 7 149 13 398 13 555 1 268 0 290 -22 370 -32
120 -162 506 -231 690 -32 85 -57 157 -55 159 1 1 58 -11 126 -28 225 -55 325
-66 618 -65 168 0 334 7 455 18 190 18 191 18 225 -3 64 -37 145 -51 297 -51
201 0 289 24 377 101 23 20 57 36 97 45 34 8 100 32 146 54 l83 39 55 -25 c78
-36 157 -44 337 -35 148 7 160 9 221 39 78 39 158 120 195 199 24 52 27 69 27
168 0 99 -3 116 -27 168 -38 80 -124 168 -197 201 -79 35 -143 46 -275 46
-239 0 -351 -46 -446 -182 -37 -52 -44 -57 -93 -67 -124 -23 -123 -23 -172 8
-82 52 -148 63 -350 59 -179 -3 -180 -3 -248 -35 -41 -20 -88 -53 -122 -87
l-54 -54 -158 39 c-216 52 -286 78 -432 158 -69 38 -161 82 -204 97 -43 15
-80 30 -82 35 -3 4 -10 101 -15 216 -11 242 -24 309 -123 603 l-62 185 0 235
c-1 139 -7 266 -14 310 -23 139 -60 271 -93 333 -65 122 -200 240 -375 326
-91 45 -215 91 -246 91 -12 0 -55 18 -96 41 -79 43 -131 79 -113 79 6 0 13 -4
17 -9 10 -18 104 -43 134 -36 36 8 137 68 354 213 l164 109 86 6 c160 11 181
38 149 191 -12 56 -22 127 -22 156 0 47 3 55 32 79 100 83 147 140 197 242 28
57 59 137 69 176 19 81 23 83 87 54 52 -23 91 -70 105 -124 16 -62 18 -67 30
-67 20 0 22 29 6 84 -20 69 -57 113 -117 141 l-47 21 33 42 c64 81 82 233 42
350 -37 108 -143 237 -303 371 -155 129 -427 304 -550 353 -114 46 -283 59
-408 33 l-68 -14 -57 48 c-97 84 -189 148 -279 194 -152 78 -246 94 -347 58z
m568 -1191 c38 -30 69 -86 93 -170 14 -49 27 -76 38 -78 11 -2 16 4 16 17 0
20 4 19 53 -13 108 -72 198 -69 265 6 81 92 144 147 178 158 59 20 127 8 187
-33 95 -62 178 -99 295 -128 63 -16 123 -29 133 -29 26 0 25 -35 -7 -128 -46
-139 -149 -288 -226 -328 -60 -31 -72 -113 -38 -266 28 -123 25 -139 -25 -154
-22 -7 -71 -13 -109 -13 -66 -1 -71 -3 -145 -54 -42 -29 -152 -102 -246 -162
-193 -124 -215 -131 -296 -82 -70 41 -94 74 -159 217 -149 331 -168 370 -179
370 -5 0 -12 -4 -15 -9 -9 -14 -51 -610 -43 -617 5 -6 197 47 263 73 7 2 17
-10 24 -31 13 -40 61 -86 122 -117 l41 -21 -6 -126 c-9 -218 -40 -325 -134
-469 -127 -194 -332 -309 -515 -288 -246 27 -514 202 -663 434 -88 137 -90
148 -89 466 0 155 5 288 10 296 5 9 59 58 119 109 142 121 365 346 433 435 63
83 127 208 137 263 6 39 7 40 56 44 34 4 65 16 103 41 l55 36 18 -36 c28 -57
57 -72 143 -75 61 -2 75 0 75 12 0 11 -18 17 -70 23 -90 9 -91 10 -111 49 -36
69 -15 239 38 318 50 74 130 100 181 60z m-1230 -1532 c-7 -284 1 -344 63
-467 127 -252 422 -471 687 -511 231 -34 446 76 600 308 85 127 137 316 137
500 0 43 4 72 10 72 6 0 29 -9 51 -20 54 -28 157 -184 259 -395 242 -497 250
-799 34 -1254 -50 -106 -139 -261 -150 -261 -2 0 -46 7 -97 15 -520 83 -804
88 -1572 24 -137 -12 -272 -22 -299 -23 l-50 -1 -57 74 c-31 41 -80 115 -107
165 -97 176 -125 301 -110 476 15 167 52 278 228 685 127 293 211 522 274 745
13 46 22 59 54 76 20 12 40 22 44 23 4 1 4 -104 1 -231z m-133 164 c0 -4 -11
-47 -25 -94 -44 -152 -144 -415 -265 -698 -180 -420 -207 -507 -220 -710 -6
-100 -103 -672 -166 -983 -4 -18 -11 -27 -21 -25 -10 2 -26 -15 -43 -47 -62
-113 -151 -185 -203 -166 -39 15 -93 105 -142 236 -21 56 -55 88 -55 51 0 -50
94 -246 140 -293 27 -28 40 -33 80 -33 72 0 128 45 194 154 l36 60 0 -40 c0
-61 -28 -310 -45 -404 -29 -157 -63 -264 -190 -605 -223 -596 -340 -976 -364
-1179 -12 -101 1 -221 38 -358 16 -56 32 -110 35 -119 5 -12 0 -18 -16 -23
-39 -12 -241 -19 -313 -11 l-68 7 7 246 c4 136 11 372 16 524 6 153 12 437 14
630 4 306 7 367 25 458 29 146 88 358 169 610 66 204 164 570 356 1331 l84
336 -5 144 c-6 165 10 294 52 429 88 281 220 382 680 521 197 60 215 64 215
51z m1868 -331 c208 -90 354 -212 427 -359 61 -122 98 -384 93 -657 l-3 -180
63 -193 c103 -314 112 -358 123 -585 5 -109 11 -203 15 -208 4 -7 -17 -8 -63
-4 -77 8 -133 -4 -184 -38 -41 -28 -99 -102 -99 -128 0 -34 28 -20 58 30 17
26 46 58 66 71 51 31 138 37 212 15 175 -52 192 -59 345 -146 102 -59 212 -98
409 -146 80 -19 146 -36 148 -38 2 -1 -7 -31 -19 -66 -43 -128 -11 -291 76
-388 26 -28 33 -42 24 -45 -31 -10 -308 -27 -514 -33 -240 -6 -407 5 -565 38
-153 32 -278 70 -284 86 -54 139 -252 680 -261 713 -19 63 -33 167 -41 295
l-6 110 90 176 c141 275 187 437 187 659 0 161 -21 280 -77 439 -45 128 -165
371 -246 499 -40 63 -72 116 -72 118 0 7 8 5 98 -35z m-2348 -1429 c0 -46 103
-243 183 -349 50 -67 60 -128 60 -388 1 -301 -9 -342 -193 -775 -62 -146 -126
-296 -142 -335 -80 -188 -163 -431 -193 -565 -23 -100 -31 -576 -15 -864 6
-114 8 -211 5 -215 -4 -3 -75 -9 -158 -12 -84 -3 -167 -12 -185 -19 -19 -7
-37 -9 -42 -4 -12 14 -58 162 -76 249 -22 106 -22 249 0 355 53 248 178 626
394 1195 113 297 155 479 182 800 6 72 45 314 86 538 41 224 74 410 74 413 0
3 5 2 10 -1 6 -3 10 -14 10 -23z m1860 -413 c102 -10 249 -29 327 -41 l142
-22 5 -40 c2 -23 10 -95 16 -160 14 -139 24 -172 214 -681 70 -187 142 -380
161 -430 18 -49 30 -93 27 -97 -13 -13 -399 -137 -537 -173 -305 -79 -610
-113 -846 -95 -243 18 -479 52 -759 109 -248 51 -652 149 -665 163 -3 3 29 86
71 184 147 347 213 515 233 596 28 110 41 320 30 493 -4 77 -7 140 -6 141 3 3
356 34 567 50 482 37 690 37 1020 3z m3655 -414 c273 -133 271 -522 -3 -661
-52 -26 -67 -29 -157 -29 -83 0 -107 4 -139 21 l-40 21 75 49 c41 27 102 77
136 110 59 57 63 65 63 106 0 57 -23 133 -67 224 -52 107 -75 113 -215 59
-127 -49 -143 -44 -77 22 116 118 281 148 424 78z m-202 -123 c23 -25 59 -110
52 -122 -13 -21 -44 -9 -63 24 -11 19 -39 45 -61 58 -23 13 -41 26 -41 30 0 5
60 24 86 27 6 1 18 -7 27 -17z m-889 -27 c136 -41 226 -136 262 -275 31 -121
-14 -259 -114 -350 -192 -177 -514 -90 -592 159 -34 109 -20 216 42 313 82
130 258 196 402 153z m788 -41 c33 -17 69 -54 63 -64 -3 -4 -26 -11 -52 -15
-27 -3 -57 -9 -69 -11 -16 -4 -24 3 -39 35 -10 23 -25 47 -33 53 -35 30 74 31
130 2z m-158 -34 c52 -58 48 -66 -35 -80 -39 -7 -71 -10 -73 -9 -43 68 -56 90
-57 96 0 5 26 13 58 19 32 6 61 12 64 13 4 0 23 -17 43 -39z m2640 -1436 c186
-47 354 -180 434 -344 23 -47 45 -100 48 -117 l7 -33 -320 0 c-315 0 -321 0
-354 -23 -46 -30 -82 -104 -74 -150 9 -49 39 -94 77 -117 31 -19 51 -20 355
-20 l323 0 -26 -67 c-98 -261 -316 -424 -589 -440 -329 -19 -624 207 -689 529
-53 257 45 509 263 675 58 45 147 86 236 109 71 18 235 17 309 -2z m5050 -4
c118 -30 207 -82 302 -177 66 -65 91 -98 123 -165 50 -103 60 -145 36 -145
-11 0 -27 22 -46 62 -41 84 -108 158 -187 204 -92 54 -160 72 -294 75 -219 6
-342 -34 -453 -149 -101 -104 -145 -211 -145 -350 0 -140 46 -252 145 -350
115 -114 206 -145 420 -145 77 0 160 5 185 11 83 19 162 65 230 133 59 60 119
152 120 184 0 6 10 12 21 12 19 0 21 -4 15 -32 -20 -100 -114 -241 -216 -325
-114 -94 -235 -141 -390 -150 -324 -19 -619 209 -684 529 -27 131 -18 242 30
370 76 202 257 363 467 414 82 20 232 17 321 -6z m-4134 -37 c0 -37 -29 -379
-36 -420 l-5 -33 -105 0 -105 0 5 33 c3 17 13 115 21 217 22 258 7 230 125
230 l100 0 0 -27z m511 22 c4 -3 -35 -452 -40 -472 -2 -7 -460 -2 -464 5 -3 5
37 457 42 470 2 4 458 2 462 -3z m549 -12 c0 -10 9 -112 20 -228 11 -115 20
-216 20 -222 0 -10 -28 -13 -105 -13 l-104 0 -5 33 c-9 55 -36 363 -36 406 l0
41 105 0 c93 0 105 -2 105 -17z m526 -218 c11 -126 19 -233 17 -237 -2 -5
-107 -8 -232 -8 l-228 0 -17 188 c-9 103 -20 211 -23 240 l-6 52 234 -2 234
-3 21 -230z m1534 208 c0 -16 -9 -120 -20 -233 -11 -113 -20 -208 -20 -212 0
-5 -47 -8 -105 -8 l-105 0 5 38 c3 20 12 118 20 217 9 99 18 190 20 203 5 21
10 22 105 22 l100 0 0 -27z m310 23 c0 -2 -25 -19 -54 -39 -67 -45 -147 -125
-194 -195 -19 -29 -37 -50 -39 -48 -5 4 16 253 22 274 3 9 39 12 135 12 71 0
130 -2 130 -4z m1260 2 c0 -2 9 -100 20 -218 26 -281 27 -260 -14 -260 -32 0
-34 3 -46 47 -32 130 -170 316 -291 394 -27 17 -49 33 -49 35 0 4 380 6 380 2z
m-499 -192 c79 -17 128 -40 195 -94 49 -39 116 -127 129 -169 l6 -23 -234 0
c-226 0 -235 -1 -267 -22 -55 -38 -74 -72 -74 -133 0 -61 19 -95 74 -132 32
-22 41 -23 267 -23 l234 0 -7 -22 c-14 -46 -83 -135 -136 -175 -95 -74 -136
-87 -273 -88 -120 0 -122 0 -197 38 -172 84 -267 244 -256 426 14 217 169 385
388 424 48 8 86 7 151 -7z m-6166 -440 c0 -145 -10 -162 -21 -38 -5 53 9 182
19 182 1 0 2 -65 2 -144z m1585 -1 l0 -115 -325 0 c-358 0 -370 2 -400 60 -8
16 -15 42 -15 57 0 36 34 91 63 103 12 5 169 9 350 9 l327 1 0 -115z m3190 0
l0 -115 -1428 0 -1429 0 -109 111 c-60 60 -111 112 -113 115 -2 2 689 4 1537
4 l1542 0 0 -115z m267 40 c-1 -41 -4 -75 -7 -75 -6 0 -92 88 -124 128 l-19
22 76 0 76 0 -2 -75z m1814 58 c64 -38 73 -126 17 -180 l-29 -28 -395 -3
c-340 -2 -398 -1 -424 13 -83 43 -82 160 1 202 18 10 124 13 412 13 349 0 392
-2 418 -17z m969 2 c58 -30 77 -94 45 -155 -31 -60 -31 -60 -519 -60 l-445 0
20 35 c13 21 21 52 21 80 0 28 -8 59 -21 80 l-20 35 445 0 c375 0 450 -2 474
-15z m-6150 -22 c12 -16 72 -80 134 -143 l113 -115 -23 -155 c-13 -85 -23
-174 -23 -197 -1 -23 -4 -44 -8 -46 -5 -3 -61 73 -125 169 l-118 173 0 171 c0
141 2 170 14 170 8 0 24 -12 36 -27z m3266 -80 c92 -98 100 -111 116 -172 51
-197 198 -378 381 -467 46 -23 56 -32 52 -48 -2 -12 -11 -109 -20 -216 -19
-229 -21 -240 -41 -240 -48 0 -210 -82 -293 -149 -53 -43 -143 -157 -167 -211
-20 -44 -33 -53 -27 -17 2 12 19 198 38 412 45 505 42 485 67 485 15 0 19 5
15 18 -2 9 -59 98 -126 196 l-121 180 0 168 c0 131 3 168 13 168 7 0 58 -48
113 -107z m-2526 -175 c0 -21 -38 -443 -105 -1168 -14 -151 -27 -290 -30 -307
l-6 -33 -229 0 c-126 0 -231 3 -233 8 -3 6 55 652 107 1192 9 91 19 202 22
248 l7 82 233 0 234 0 0 -22z m440 11 c0 -9 37 -418 105 -1164 14 -148 27
-289 30 -312 l5 -43 -335 0 c-312 0 -335 1 -335 18 -1 9 30 353 67 765 l68
747 197 0 c134 0 198 -3 198 -11z m254 -31 c3 -24 33 -347 66 -718 34 -371 63
-696 67 -722 l6 -48 -106 0 -106 0 -6 33 c-2 17 -30 307 -60 642 -31 336 -61
665 -68 733 l-13 122 107 0 108 0 5 -42z m501 30 c3 -7 14 -116 25 -243 45
-509 110 -1212 115 -1242 l6 -33 -236 0 c-181 0 -235 3 -235 13 0 6 -13 156
-30 332 -16 176 -45 493 -65 705 -19 212 -37 406 -40 433 l-6 47 231 0 c175 0
232 -3 235 -12z m1165 -15 c0 -15 -25 -297 -56 -627 -30 -331 -61 -662 -67
-736 l-12 -135 -422 -3 -422 -2 -5 32 c-3 18 -17 161 -31 318 -14 157 -43 479
-65 715 -22 237 -40 438 -40 448 0 16 33 17 560 17 l560 0 0 -27z m1964 -5 c3
-18 7 -62 10 -98 3 -36 24 -261 46 -500 22 -239 81 -874 130 -1410 49 -536
112 -1220 140 -1520 56 -606 91 -989 120 -1310 53 -586 110 -1199 115 -1232
l5 -38 -198 0 -199 0 -17 188 c-27 290 -64 696 -86 927 -11 116 -33 359 -50
540 -84 918 -103 1129 -135 1475 -19 206 -50 546 -70 755 -19 209 -35 387 -35
396 0 14 14 18 93 21 108 4 147 24 178 92 24 53 24 80 -1 130 -34 70 -59 81
-187 84 l-111 4 -5 31 c-3 18 -9 73 -12 122 -4 50 -8 99 -10 110 -1 11 -20
208 -41 437 l-38 418 58 57 c89 88 145 179 182 296 l18 57 47 0 c47 0 48 -1
53 -32z m-1834 -253 l84 -127 -48 -526 c-26 -290 -50 -542 -53 -559 l-5 -33
-99 0 c-54 0 -100 3 -102 8 -2 4 -1 43 4 87 4 44 31 332 59 640 56 629 58 647
69 641 4 -3 45 -62 91 -131z m-3144 -70 c43 -63 84 -115 92 -115 11 0 13 -10
8 -47 -3 -27 -24 -250 -46 -498 -22 -247 -43 -465 -46 -482 l-5 -33 -104 0
-104 0 5 33 c5 37 114 1221 114 1242 0 8 2 15 4 15 3 0 39 -52 82 -115z
m-9682 77 c-106 -77 -163 -181 -172 -313 -9 -145 52 -272 172 -360 l39 -29
-29 0 c-87 1 -209 109 -273 242 -58 121 -74 185 -69 282 3 71 7 87 30 118 46
60 121 85 262 87 l79 1 -39 -28z m760 0 c-83 -61 -133 -136 -160 -244 -40
-157 31 -344 164 -430 l47 -30 -55 4 c-101 8 -220 81 -276 169 -61 98 -70 237
-21 344 57 123 181 211 301 214 l39 1 -39 -28z m1950 -179 c17 -201 37 -607
46 -883 5 -172 18 -388 30 -495 41 -376 108 -877 135 -1010 10 -50 15 -176 19
-435 5 -395 15 -502 64 -740 33 -157 92 -483 172 -955 28 -165 64 -367 81
-449 16 -82 32 -181 35 -220 6 -67 -9 -325 -24 -432 -8 -48 -8 -49 -42 -47
-59 3 -110 -15 -120 -43 -14 -35 -12 -102 5 -148 10 -30 12 -91 9 -280 l-5
-241 -435 -3 -435 -2 3 252 c2 170 8 272 17 311 11 46 11 66 2 97 -12 39 -25
49 -79 54 l-27 3 -6 149 c-4 82 -10 264 -14 404 -10 340 -16 307 183 1031 134
488 145 675 86 1469 l-17 225 31 220 c91 643 113 871 122 1305 6 273 14 422
30 550 11 96 25 218 31 270 12 102 22 120 70 120 26 0 27 -1 33 -77z m11556 0
c0 -16 57 -638 75 -820 4 -35 5 -63 2 -63 -2 0 -21 25 -40 55 -49 72 -136 157
-208 202 -33 20 -59 39 -59 42 -1 3 -11 114 -24 246 -13 132 -21 243 -17 246
3 4 33 14 65 24 33 9 89 32 125 50 77 40 81 41 81 18z m-530 -92 l215 -6 21
-230 c12 -126 20 -232 18 -234 -2 -2 -39 6 -81 19 -70 21 -98 24 -285 24
l-208 1 0 30 c0 38 31 396 35 412 3 9 12 9 37 1 18 -6 130 -14 248 -17z
m-9513 -228 c-12 -356 -80 -758 -254 -1513 -68 -296 -74 -331 -68 -396 7 -85
69 -461 120 -729 62 -323 64 -337 65 -445 1 -297 -69 -720 -224 -1360 -27
-110 -126 -602 -126 -624 0 -2 -58 -5 -128 -8 -205 -7 -240 -37 -250 -209 -5
-89 -10 -99 -41 -80 -13 8 -13 27 -3 128 31 305 28 371 -27 638 -16 83 -60
326 -96 540 -79 466 -118 680 -151 835 -47 218 -55 306 -63 735 -5 242 -13
424 -19 445 -14 43 -51 306 -91 630 -27 227 -39 327 -60 535 -5 44 -9 159 -11
255 -1 96 -7 270 -14 385 -7 116 -12 211 -11 212 1 2 164 7 363 13 393 11 552
22 671 46 85 17 283 82 364 118 28 14 54 25 56 25 2 1 1 -79 -2 -176z m-2517
16 c91 -6 314 -16 495 -22 l330 -12 -2 -25 c-18 -209 -23 -333 -23 -529 0
-321 -31 -642 -122 -1281 l-30 -215 23 -295 c32 -417 33 -816 2 -985 -29 -153
-86 -387 -169 -684 -107 -384 -107 -383 -108 -641 -1 -124 3 -327 8 -451 l9
-226 -46 -11 c-25 -7 -48 -12 -51 -12 -3 0 -6 23 -6 51 0 69 -27 184 -48 203
-34 30 -137 48 -253 44 -60 -1 -109 -2 -109 -1 0 22 -72 448 -105 618 -109
568 -143 810 -152 1075 -9 274 15 597 78 1065 27 197 30 249 25 360 -8 198
-40 372 -141 775 -103 414 -163 708 -181 890 l-6 65 49 19 c65 26 173 135 199
200 l19 48 75 -6 c41 -3 149 -11 240 -17z m7140 -280 c122 -33 205 -82 295
-174 85 -85 156 -202 170 -277 l7 -37 -316 -1 c-174 0 -326 -4 -338 -9 -53
-20 -88 -81 -88 -149 0 -59 28 -106 80 -133 32 -17 62 -19 348 -19 l314 0 -7
-32 c-3 -18 -24 -71 -47 -116 -59 -119 -161 -222 -283 -284 -119 -60 -175 -73
-320 -72 -103 0 -130 4 -193 27 -204 73 -367 237 -431 434 -29 92 -36 230 -17
328 52 256 238 449 501 520 79 22 237 19 325 -6z m5085 -13 c165 -56 302 -179
381 -341 48 -99 56 -136 26 -128 -11 2 -30 30 -46 64 -35 77 -130 174 -213
217 -80 42 -172 61 -298 61 -191 0 -310 -44 -421 -154 -106 -105 -151 -228
-141 -385 13 -213 172 -402 378 -449 72 -17 317 -14 380 5 150 44 285 161 330
287 9 25 19 37 32 37 16 0 18 -5 12 -32 -10 -51 -61 -151 -112 -218 -146 -195
-410 -295 -651 -246 -148 30 -239 81 -353 196 -155 157 -219 378 -174 595 22
108 96 245 174 324 143 144 290 203 496 197 99 -2 134 -7 200 -30z m-10 -186
c145 -24 302 -148 339 -268 4 -12 4 -22 -1 -21 -4 1 -113 1 -240 0 l-233 -1
-39 -36 c-68 -61 -77 -142 -24 -213 43 -56 67 -61 318 -61 l226 0 -6 -22 c-10
-36 -63 -109 -108 -150 -129 -119 -332 -152 -490 -80 -184 84 -293 285 -260
479 31 177 168 326 339 367 73 18 102 19 179 6z m-6150 -444 c0 -79 -1 -143
-2 -142 -1 1 -7 34 -13 74 -9 55 -9 90 0 142 7 39 13 70 13 70 1 0 2 -65 2
-144z m1605 -1 l0 -115 -329 0 c-211 0 -339 4 -359 11 -76 26 -94 136 -32 192
l30 27 345 0 345 0 0 -115z m185 -21 l131 -137 237 2 237 2 0 -23 c0 -36 -131
-1481 -135 -1495 -3 -10 -59 -13 -233 -13 -126 0 -231 2 -233 4 -4 5 -1 43 66
769 20 219 34 406 32 415 -3 9 -5 1 -6 -19 -2 -72 -2 -72 -144 140 l-97 144 0
174 c0 95 3 173 8 173 4 0 66 -61 137 -136z m3005 21 l0 -115 -1428 0 -1428 0
-64 68 c-36 37 -85 88 -110 115 l-44 47 1537 0 1537 0 0 -115z m153 16 c54
-55 97 -108 97 -118 0 -41 32 -142 70 -219 62 -127 208 -271 325 -320 30 -12
33 -17 30 -46 -3 -18 -12 -114 -20 -213 -9 -99 -17 -193 -19 -210 -2 -26 -9
-32 -82 -60 -190 -75 -332 -211 -408 -395 l-27 -65 5 55 c3 30 24 267 47 525
23 259 44 472 45 474 2 2 13 -8 25 -22 11 -15 24 -27 29 -27 30 0 7 48 -105
211 l-125 183 0 173 c0 95 4 173 8 173 5 0 52 -45 105 -99z m96 77 c0 -13 -4
-41 -7 -63 l-7 -40 -59 63 -59 62 66 0 c63 0 67 -1 66 -22z m1818 2 c68 -41
63 -146 -9 -190 -32 -19 -50 -20 -411 -20 -405 0 -427 2 -461 51 -9 13 -16 43
-16 67 0 37 6 50 34 78 l34 34 399 0 c377 0 400 -1 430 -20z m1139 -134 c39
-39 45 -86 19 -136 -31 -60 -33 -60 -494 -60 l-419 0 -6 48 c-3 26 -8 77 -12
115 l-6 67 442 0 442 0 34 -34z m-4826 -156 l0 -40 -370 0 -370 0 0 40 0 40
370 0 370 0 0 -40z m250 35 c0 -3 13 -148 30 -324 16 -175 45 -493 65 -707 19
-214 37 -413 41 -442 l6 -53 -109 3 -108 3 -67 730 c-37 402 -67 745 -68 763
l0 32 105 0 c58 0 105 -2 105 -5z m574 -742 c37 -412 68 -755 69 -763 2 -13
-30 -15 -222 -18 -124 -1 -229 2 -233 6 -5 5 -38 326 -73 713 -35 387 -66 728
-69 757 l-6 52 233 0 233 0 68 -747z m756 707 l0 -40 -387 2 -388 3 -3 38 -3
37 390 0 391 0 0 -40z m1879 -67 c2 -48 102 -1147 121 -1337 15 -147 17 -140
-26 -111 -33 23 -47 25 -140 25 l-103 0 -10 53 c-5 28 -31 280 -56 558 l-47
506 58 54 c66 62 144 176 170 248 10 28 21 51 24 51 3 0 7 -21 9 -47z m-1746
-120 l88 -129 -11 -109 c-5 -61 -28 -306 -50 -545 -22 -239 -42 -454 -45 -477
l-6 -43 -98 0 c-54 0 -100 2 -102 5 -3 2 19 260 48 572 28 312 57 634 64 715
7 81 15 145 18 143 3 -2 46 -61 94 -132z m-1703 92 c0 -13 83 -914 114 -1240
7 -77 11 -143 9 -147 -2 -5 -229 -8 -504 -8 l-499 0 0 28 c0 15 20 248 45 517
25 270 53 574 62 678 l17 187 378 0 c327 0 378 -2 378 -15z m1556 -67 c-8 -95
-66 -727 -99 -1083 l-22 -240 -252 -3 -252 -2 -5 32 c-3 18 -17 157 -31 308
-13 151 -40 446 -60 655 -19 209 -35 388 -35 397 0 17 24 18 381 18 l382 0 -7
-82z m-2981 -118 l88 -130 -47 -518 c-26 -284 -49 -527 -52 -539 -4 -22 -9
-23 -104 -23 l-100 0 0 28 c0 36 110 1260 116 1290 2 12 6 22 7 22 2 0 43 -59
92 -130z m4620 -560 c21 -234 40 -431 42 -437 9 -23 -13 -14 -24 10 -37 79
-171 201 -288 260 -123 62 -173 71 -420 73 -210 1 -220 2 -218 20 4 30 33 356
35 392 1 19 6 35 9 38 4 2 36 -3 71 -11 44 -10 121 -15 259 -15 223 0 296 13
415 73 38 20 72 32 75 29 3 -4 23 -198 44 -432z m-5416 -170 c177 -59 334
-208 409 -387 38 -89 62 -82 -295 -85 -287 -3 -321 -5 -348 -21 -106 -64 -103
-222 6 -277 36 -19 60 -20 350 -20 l312 0 -7 -32 c-4 -18 -25 -70 -47 -115
-60 -122 -166 -226 -291 -287 -169 -83 -338 -97 -505 -41 -105 36 -184 85
-269 170 -217 217 -253 530 -93 812 40 71 146 176 221 221 164 97 382 121 557
62z m5048 -2 c173 -62 326 -206 397 -376 31 -72 32 -92 9 -92 -12 0 -27 20
-45 59 -52 111 -161 208 -284 252 -51 19 -81 22 -224 22 -110 1 -178 -3 -205
-12 -130 -43 -248 -135 -303 -239 -145 -272 -23 -602 263 -712 50 -19 85 -24
203 -28 90 -3 167 0 205 8 138 27 273 130 342 261 34 65 65 90 65 52 -1 -29
-54 -145 -90 -199 -59 -84 -152 -168 -237 -211 -119 -61 -188 -78 -323 -77
-98 0 -126 4 -192 27 -177 61 -320 184 -396 341 -55 113 -67 171 -66 306 1 94
5 128 25 185 80 231 233 378 464 447 94 28 296 21 392 -14z m27 -194 c80 -21
163 -72 221 -136 39 -44 85 -115 85 -132 0 -3 -105 -6 -232 -8 -205 -3 -237
-5 -263 -21 -99 -60 -105 -203 -13 -269 32 -22 40 -23 271 -26 130 -2 237 -5
237 -8 0 -14 -43 -86 -75 -124 -175 -210 -494 -215 -675 -12 -65 72 -97 141
-112 236 -49 314 247 580 556 500z m-6186 -334 c-6 -30 -8 -98 -5 -150 4 -73
3 -89 -6 -70 -15 35 -14 198 2 243 18 52 21 43 9 -23z m1612 -9 c-5 -11 -10
-63 -10 -115 l0 -96 -331 0 c-363 0 -378 2 -412 59 -28 48 -22 98 17 137 l34
34 356 0 c350 0 356 0 346 -19z m3190 -1 c-6 -12 -10 -61 -9 -113 l2 -92
-1444 -3 -1444 -2 -107 107 c-60 59 -108 111 -108 115 0 5 702 8 1560 8 l1561
0 -11 -20z m237 -60 c-1 -44 -5 -80 -8 -80 -5 0 -64 61 -128 133 l-24 27 80 0
81 0 -1 -80z m1838 47 c53 -61 37 -143 -35 -179 -31 -16 -73 -18 -408 -18
-410 0 -427 2 -456 59 -27 52 -21 98 18 137 l35 35 411 -3 412 -3 23 -28z
m-5080 -147 c131 -136 174 -167 161 -116 l-6 26 213 0 213 0 -7 -77 c-29 -294
-129 -1399 -129 -1419 l0 -24 -235 0 -235 0 0 28 c0 31 76 873 86 945 4 31 11
47 20 47 8 0 14 5 14 11 0 6 -56 93 -125 194 l-125 184 0 171 c0 133 3 171 13
168 6 -2 71 -64 142 -138z m3155 40 c79 -86 94 -108 107 -156 46 -179 179
-351 334 -434 l61 -32 -6 -47 c-3 -25 -13 -125 -21 -221 -23 -255 -16 -234
-78 -253 -191 -60 -382 -264 -437 -465 -6 -23 -14 -42 -18 -42 -5 0 11 206 34
458 24 251 46 496 50 545 4 48 10 87 15 87 4 0 17 -15 28 -34 25 -39 49 -52
58 -31 5 14 -21 54 -204 323 l-43 63 1 161 c0 159 2 178 18 178 5 0 50 -45
101 -100z m3165 -14 c40 -17 65 -60 65 -112 0 -28 -8 -44 -34 -70 l-34 -34
-345 0 -345 0 -6 68 c-4 37 -9 88 -12 115 l-6 47 341 0 c273 0 349 -3 376 -14z
m-1170 -211 c9 -94 43 -462 75 -820 33 -357 78 -848 100 -1089 22 -242 39
-443 37 -449 -1 -5 -63 -9 -137 -9 l-135 0 -8 33 c-4 19 -37 358 -73 754 -36
396 -85 934 -109 1195 -24 261 -41 478 -38 483 2 4 44 7 92 6 75 -2 94 1 124
20 19 12 38 29 41 38 4 9 8 14 10 12 3 -2 12 -81 21 -174z m-3455 48 l6 -53
-543 0 -543 0 0 33 c0 17 3 42 6 54 l6 22 532 -2 531 -2 5 -52z m237 49 c8 -5
19 -85 32 -227 11 -121 41 -440 66 -710 25 -269 46 -512 48 -540 l2 -50 -105
0 -105 0 -32 355 c-18 195 -48 524 -68 732 -19 207 -35 392 -35 412 l0 36 93
0 c50 0 97 -4 104 -8z m997 2 c7 -3 10 -23 8 -54 l-4 -50 -216 2 -217 3 -3 53
-3 53 212 -1 c116 -1 216 -3 223 -6z m98 -174 c16 -25 50 -77 78 -116 l50 -70
-51 -575 c-28 -316 -53 -580 -55 -586 -2 -9 -32 -13 -104 -13 -73 0 -100 3
-101 13 -2 20 -1 34 41 487 22 239 51 561 65 715 30 321 37 362 45 260 4 -52
12 -81 32 -115z m-560 -20 c53 -567 118 -1283 118 -1305 l0 -25 -229 0 -229 0
-6 48 c-3 26 -15 148 -26 272 -12 124 -41 443 -65 709 -25 266 -45 485 -45
487 0 3 105 3 233 2 l232 -3 17 -185z m2354 93 c-10 -10 -19 5 -10 18 6 11 8
11 12 0 2 -7 1 -15 -2 -18z m-3116 -50 c0 -10 71 -780 104 -1123 12 -135 21
-248 19 -252 -2 -5 -305 -8 -674 -8 l-669 0 0 24 c0 13 20 244 45 512 25 269
52 566 61 659 8 94 17 176 19 183 3 9 122 12 550 12 300 0 545 -3 545 -7z
m1220 -5 c0 -30 -122 -1354 -125 -1366 -4 -9 -27 -12 -87 -10 l-82 3 -57 625
c-31 344 -60 655 -64 693 l-6 67 210 0 c162 0 211 -3 211 -12z m1914 -75 c4
-49 33 -369 65 -713 32 -344 57 -627 55 -629 -2 -2 -13 4 -25 15 -17 15 -41
20 -132 24 l-111 5 -27 77 c-69 199 -225 359 -420 432 -102 38 -197 49 -404
45 l-187 -4 7 90 c10 137 35 368 40 373 2 2 26 -4 52 -13 38 -14 90 -19 252
-23 221 -4 281 2 393 44 139 53 288 177 358 302 25 45 41 62 56 62 19 0 22 -7
28 -87z m-4824 -209 c9 -17 2 -135 -37 -555 l-48 -534 -102 -3 -103 -3 0 28
c0 35 108 1236 116 1282 5 33 5 33 84 -80 43 -63 84 -123 90 -135z m-895 -599
c81 -21 190 -76 245 -122 108 -90 207 -235 226 -331 l7 -32 -310 0 c-303 0
-311 0 -353 -23 -59 -31 -82 -76 -78 -148 5 -63 29 -103 81 -131 28 -15 70
-17 349 -18 l317 0 -20 -56 c-47 -137 -147 -264 -271 -344 -150 -97 -340 -130
-518 -88 -68 16 -198 81 -263 133 -141 112 -248 334 -247 514 2 200 106 408
264 528 98 74 192 113 336 137 44 8 173 -3 235 -19z m5074 -11 c148 -49 280
-150 362 -276 38 -59 79 -154 79 -183 0 -36 -32 -9 -65 54 -69 130 -195 227
-337 257 -53 12 -109 15 -208 11 -115 -3 -145 -8 -203 -30 -349 -135 -438
-565 -171 -830 55 -54 161 -109 242 -126 74 -15 264 -13 343 3 88 19 154 53
223 117 64 59 107 116 127 172 10 28 19 37 36 37 l23 0 -24 -64 c-40 -106 -71
-154 -154 -240 -163 -170 -402 -239 -632 -184 -124 30 -277 127 -355 225 -168
211 -198 480 -80 719 101 206 270 325 525 368 58 10 195 -5 269 -30z m52 -200
c75 -22 135 -57 197 -118 44 -42 102 -128 102 -151 0 -3 -100 -5 -222 -5 -204
0 -225 -2 -264 -21 -115 -55 -120 -209 -10 -274 42 -25 46 -25 269 -25 125 0
227 -3 227 -7 0 -5 -13 -30 -29 -58 -102 -175 -309 -261 -505 -210 -77 20
-140 58 -206 125 -276 277 -75 754 321 759 36 1 90 -6 120 -15z m-6196 -406
c0 -68 3 -139 7 -158 l7 -35 -16 35 c-17 39 -23 159 -10 233 5 26 9 47 10 47
2 0 3 -55 2 -122z m1583 -24 c2 -100 1 -112 -15 -115 -10 -2 -163 -2 -340 1
l-323 5 -26 26 c-18 18 -28 41 -31 71 -4 37 -1 49 22 76 15 17 41 36 58 41 18
5 172 9 342 8 l310 -2 3 -111z m3187 -2 l0 -113 -1432 1 -1433 0 -102 106
c-57 58 -105 110 -106 115 -2 5 630 8 1535 7 l1538 -3 0 -113z m273 38 c-2
-44 -6 -80 -9 -80 -11 0 -148 147 -142 154 3 3 40 6 80 6 l74 0 -3 -80z m1792
67 c40 -14 80 -67 80 -107 0 -38 -40 -93 -76 -105 -20 -6 -175 -8 -423 -5
l-393 5 -29 33 c-53 59 -31 145 45 178 42 18 743 19 796 1z m-5178 -16 c31
-45 249 -261 262 -261 8 0 17 4 21 9 6 12 412 15 418 4 2 -4 -9 -141 -24 -303
-15 -162 -28 -303 -28 -312 -1 -17 -19 -18 -237 -18 l-236 0 7 78 c4 42 11 79
16 80 22 9 1 48 -111 211 l-120 175 0 178 c0 105 4 178 9 178 6 0 16 -9 23
-19z m3279 -93 c93 -97 109 -120 118 -160 39 -176 162 -346 321 -444 33 -20
60 -44 60 -53 0 -9 -3 -40 -6 -68 l-7 -53 -235 0 -234 0 6 78 c4 42 10 92 13
110 l5 33 25 -35 c25 -38 53 -48 53 -19 0 9 -54 97 -120 194 l-120 177 0 176
c0 97 3 176 6 176 4 0 55 -51 115 -112z m3311 -58 c72 -20 107 -97 76 -164
-24 -54 -36 -56 -315 -58 -215 -1 -258 1 -260 13 -8 47 -20 205 -16 212 7 11
473 8 515 -3z m-1312 -62 c0 -18 3 -62 6 -99 l7 -65 -169 1 c-93 1 -170 4
-172 8 -1 4 6 34 15 67 l18 60 97 0 c104 0 132 7 163 38 28 29 35 27 35 -10z
m-3119 -93 c3 -33 3 -62 0 -65 -3 -3 -300 -3 -658 0 l-653 5 -25 26 c-14 14
-28 42 -32 62 l-6 37 684 -2 684 -3 6 -60z m249 48 c0 -10 11 -139 25 -287 14
-149 25 -285 25 -303 l0 -33 -105 0 c-69 0 -105 4 -105 11 0 22 -50 565 -54
590 -3 15 -2 29 1 33 4 3 53 6 110 6 91 0 103 -2 103 -17z m504 -15 c3 -18 15
-136 26 -263 12 -126 23 -253 27 -281 l5 -51 -227 -7 c-125 -4 -231 -4 -235 1
-9 10 -62 612 -54 624 3 5 106 9 229 9 l224 0 5 -32z m149 25 c2 -5 1 -35 -2
-68 l-6 -60 -37 -1 c-21 -1 -42 3 -47 10 -8 9 -16 88 -12 119 1 4 23 7 50 7
28 0 52 -3 54 -7z m57 -51 c0 -44 8 -59 81 -167 l81 -120 -12 -140 c-6 -77
-13 -142 -15 -144 -6 -6 -194 -5 -200 1 -8 8 49 618 58 618 4 0 7 -22 7 -48z
m-2360 3 c0 -29 31 -76 63 -95 31 -19 55 -20 689 -20 l657 0 5 -52 c16 -140
37 -400 33 -404 -4 -5 -1509 -6 -1513 -1 -2 2 5 95 16 207 10 113 21 244 25
293 4 48 11 87 16 87 5 0 9 -7 9 -15z m2287 -172 c-3 -32 -11 -122 -18 -201
-7 -79 -15 -137 -19 -130 -4 7 -12 76 -19 153 -7 77 -15 161 -18 188 l-6 47
43 0 43 0 -6 -57z m2248 45 c5 -17 45 -442 41 -446 -5 -4 -1519 -3 -1524 2 -2
3 -1 30 3 61 5 47 9 55 23 50 9 -4 55 -16 102 -27 75 -17 110 -19 285 -16 186
4 205 6 280 32 159 54 295 157 375 284 l45 71 183 1 c137 0 184 -3 187 -12z
m-5230 -125 c92 -138 91 -135 78 -265 l-6 -68 -103 0 c-57 0 -104 3 -104 8 0
4 9 102 20 217 11 116 20 216 20 223 0 6 2 12 5 12 3 0 43 -57 90 -127z
m-7280 -94 c44 -21 58 -61 63 -177 3 -71 9 -105 17 -109 7 -2 33 2 57 10 23 8
67 18 96 22 43 6 57 4 73 -11 23 -21 25 -67 3 -130 -13 -38 -15 -82 -12 -231
l3 -185 -80 -32 c-113 -46 -139 -61 -234 -133 -147 -113 -256 -154 -458 -174
-169 -18 -399 14 -468 65 -18 13 -19 18 -7 62 22 83 63 144 137 208 228 196
405 346 409 346 2 0 -2 -17 -10 -37 -19 -56 -17 -89 9 -119 54 -63 208 -34
297 55 51 51 100 140 100 182 0 25 -3 26 -61 33 -34 3 -101 6 -149 6 -86 0
-88 0 -98 28 -36 90 -64 196 -69 254 l-6 67 39 6 c22 4 44 8 49 11 27 10 272
-3 300 -17z m1914 2 c22 -12 23 -17 18 -71 -4 -31 -23 -107 -43 -167 l-36
-111 -92 -1 c-133 -2 -207 -11 -213 -28 -10 -26 65 -159 113 -202 109 -96 268
-108 303 -23 12 29 8 81 -10 113 -5 11 -7 19 -4 19 3 0 56 -44 118 -98 61 -55
168 -146 237 -203 108 -91 129 -113 158 -169 18 -36 33 -83 35 -105 l2 -40
-83 -28 c-172 -58 -402 -58 -598 -2 -111 33 -138 47 -265 143 -94 70 -157 104
-284 152 l-28 11 7 187 c6 158 4 194 -9 225 -8 20 -15 57 -15 81 0 36 4 48 21
57 24 13 90 6 162 -18 27 -8 52 -11 57 -7 4 5 13 57 19 115 6 59 16 118 22
132 11 25 40 42 89 51 52 10 295 0 319 -13z m7989 -458 l2 -173 -1460 0 -1460
0 0 174 0 174 1458 -1 1457 -2 3 -172z m3902 2 l0 -175 -1815 0 -1815 0 0 175
0 175 1815 0 1815 0 0 -175z m-13851 59 c8 -8 -37 -91 -70 -128 -47 -54 -110
-87 -177 -93 -66 -6 -92 9 -92 55 0 47 59 144 102 168 16 9 228 7 237 -2z
m1906 -25 c39 -44 74 -111 75 -143 1 -64 -91 -75 -191 -23 -47 24 -71 45 -100
87 -21 30 -41 67 -45 82 l-6 27 99 4 c54 1 105 4 114 5 9 1 33 -17 54 -39z
m5645 -379 l0 -120 -145 0 -145 0 0 120 0 120 145 0 145 0 0 -120z m2468 -2
l-3 -123 -1212 -3 -1213 -2 0 125 0 125 1215 0 1216 0 -3 -122z m392 2 l0
-120 -90 0 -90 0 0 120 0 120 90 0 90 0 0 -120z m330 0 l0 -120 -140 0 -140 0
0 120 0 120 140 0 140 0 0 -120z m2470 -5 l0 -125 -1210 0 -1210 0 0 125 0
125 1210 0 1210 0 0 -125z m560 5 l0 -120 -140 0 -140 0 0 120 0 120 140 0
140 0 0 -120z m-13430 -103 c0 -24 -6 -51 -12 -60 -11 -14 -107 -67 -121 -67
-3 0 -49 -29 -102 -65 -182 -124 -284 -163 -485 -184 -165 -18 -406 7 -491 50
-39 19 -49 35 -49 75 0 28 8 29 54 10 151 -63 439 -70 637 -15 90 25 207 85
274 140 28 23 66 53 86 66 35 23 186 93 202 93 4 0 7 -19 7 -43z m1039 13 c70
-28 137 -70 266 -165 188 -139 559 -184 822 -100 43 14 81 25 86 25 4 0 7 -13
7 -28 0 -79 -150 -124 -415 -125 -265 -1 -434 55 -650 213 -27 20 -70 44 -95
53 -71 27 -97 54 -103 110 -2 26 -1 47 3 47 4 0 40 -13 79 -30z"/>
<path d="M6383 15333 c-30 -10 -10 -32 39 -42 63 -14 149 -59 213 -112 47 -39
65 -44 72 -22 6 17 -101 99 -172 133 -64 31 -132 50 -152 43z"/>
<path d="M6336 15171 c-17 -26 44 -107 98 -132 54 -25 109 -26 104 -2 -2 12
-16 20 -41 24 -56 9 -81 26 -112 75 -28 44 -39 52 -49 35z"/>
<path d="M6146 14883 c-25 -25 15 -137 67 -191 29 -30 85 -62 108 -62 22 0 7
38 -16 44 -58 15 -125 114 -125 184 0 20 -22 36 -34 25z"/>
<path d="M4814 14289 c-3 -6 -2 -15 2 -19 5 -5 112 -36 238 -70 157 -41 233
-57 240 -50 6 6 6 13 0 19 -8 8 -445 131 -465 131 -4 0 -11 -5 -15 -11z"/>
<path d="M5710 14203 c-123 -14 -154 -23 -134 -43 9 -9 339 22 350 33 3 3 3
10 -1 16 -8 14 -57 12 -215 -6z"/>
<path d="M5266 11405 c-21 -32 -20 -58 2 -86 40 -49 122 -15 122 51 0 59 -91
85 -124 35z m84 -45 c0 -23 -28 -34 -46 -19 -19 16 -17 36 3 48 21 11 43 -3
43 -29z"/>
</g>
</svg>
